<svg width="960" height="380" viewBox="0 0 960 380" fill="none" xmlns="http://www.w3.org/2000/svg">
<g clip-path="url(#clip0_401_8170)">
<g clip-path="url(#clip1_401_8170)">
<circle cx="479.141" cy="479.141" r="479.141" transform="matrix(-4.37114e-08 1 1 4.37114e-08 0.830078 4.44678)" stroke="url(#paint0_linear_401_8170)" stroke-opacity="0.3" stroke-width="0.816958" stroke-dasharray="4.54 4.54" style="mix-blend-mode:screen"/>
<path d="M473.2 847.04C474.686 847.066 476.175 847.084 477.666 847.093L477.668 846.685C478.413 846.69 479.158 846.692 479.904 846.692C480.649 846.692 481.394 846.69 482.138 846.685L482.141 847.093C483.632 847.084 485.12 847.066 486.607 847.04L486.6 846.631C488.084 846.604 489.567 846.568 491.048 846.524L491.06 846.932C492.542 846.887 494.022 846.833 495.499 846.771L495.482 846.363C496.963 846.3 498.441 846.228 499.917 846.148L499.94 846.556C501.428 846.475 502.915 846.385 504.398 846.286L504.371 845.878C505.853 845.779 507.333 845.672 508.81 845.555L508.843 845.962C510.322 845.845 511.798 845.72 513.272 845.585L513.235 845.178C514.709 845.044 516.181 844.9 517.65 844.748L517.692 845.154C519.175 845.001 520.655 844.838 522.133 844.667L522.086 844.261C523.561 844.09 525.034 843.91 526.505 843.721L526.557 844.126C528.029 843.937 529.498 843.739 530.964 843.533L530.907 843.128C532.372 842.922 533.835 842.706 535.294 842.482L535.356 842.886C536.829 842.66 538.3 842.425 539.767 842.181L539.7 841.778C541.165 841.535 542.628 841.282 544.087 841.021L544.159 841.423C545.62 841.162 547.078 840.892 548.534 840.613L548.457 840.212C549.91 839.934 551.36 839.646 552.807 839.351L552.889 839.751C554.349 839.453 555.805 839.145 557.258 838.83L557.171 838.431C558.622 838.115 560.071 837.791 561.516 837.458L561.607 837.856C563.054 837.523 564.497 837.181 565.937 836.831L565.841 836.434C567.279 836.084 568.714 835.725 570.145 835.358L570.247 835.754C571.689 835.384 573.127 835.005 574.562 834.618L574.456 834.224C575.889 833.837 577.32 833.442 578.747 833.038L578.858 833.431C580.286 833.027 581.711 832.614 583.132 832.192L583.016 831.801C584.436 831.38 585.852 830.95 587.264 830.513L587.385 830.903C588.806 830.462 590.224 830.013 591.637 829.556L591.511 829.167C592.924 828.71 594.333 828.244 595.738 827.77L595.869 828.157C597.275 827.683 598.678 827.2 600.077 826.709L599.942 826.323C601.339 825.833 602.732 825.334 604.122 824.826L604.262 825.21C605.659 824.7 607.052 824.181 608.441 823.654L608.296 823.272C609.684 822.746 611.068 822.211 612.448 821.668L612.598 822.049C613.979 821.505 615.356 820.953 616.729 820.393L616.575 820.015C617.947 819.456 619.314 818.888 620.677 818.313L620.836 818.689C622.206 818.11 623.572 817.524 624.933 816.929L624.769 816.555C626.129 815.961 627.485 815.358 628.836 814.748L629.004 815.12C630.357 814.509 631.706 813.89 633.05 813.263L632.877 812.892C634.219 812.266 635.557 811.632 636.891 810.989L637.068 811.357C638.407 810.712 639.742 810.059 641.072 809.398L640.89 809.032C642.219 808.371 643.543 807.703 644.863 807.027L645.049 807.39C646.37 806.713 647.686 806.028 648.998 805.335L648.807 804.974C650.117 804.282 651.423 803.582 652.723 802.875L652.919 803.234C654.224 802.524 655.525 801.805 656.821 801.08L656.621 800.723C657.916 799.998 659.205 799.266 660.49 798.525L660.694 798.879C661.98 798.138 663.261 797.389 664.537 796.633L664.329 796.281C665.604 795.526 666.873 794.762 668.138 793.991L668.351 794.34C669.62 793.567 670.883 792.786 672.142 791.997L671.925 791.651C673.182 790.864 674.434 790.069 675.68 789.266L675.902 789.61C677.15 788.806 678.392 787.995 679.63 787.177L679.405 786.836C680.641 786.019 681.872 785.194 683.098 784.362L683.328 784.7C684.557 783.865 685.78 783.023 686.998 782.174L686.765 781.839C687.982 780.991 689.193 780.136 690.399 779.273L690.636 779.605C691.844 778.742 693.045 777.871 694.241 776.993L694 776.664C695.195 775.787 696.384 774.902 697.568 774.011L697.814 774.337C699 773.444 700.181 772.543 701.356 771.636L701.106 771.312C702.28 770.406 703.448 769.492 704.61 768.572L704.864 768.892C706.027 767.97 707.185 767.042 708.337 766.106L708.08 765.789C709.231 764.855 710.376 763.913 711.515 762.965L711.776 763.278C712.917 762.328 714.052 761.371 715.182 760.408L714.916 760.097C716.044 759.134 717.166 758.165 718.282 757.189L718.551 757.496C719.668 756.519 720.78 755.535 721.884 754.544L721.612 754.24C722.716 753.25 723.814 752.254 724.905 751.251L725.182 751.551C726.275 750.547 727.362 749.536 728.443 748.518L728.163 748.221C729.242 747.204 730.315 746.181 731.382 745.152L731.666 745.446C732.734 744.415 733.796 743.378 734.852 742.334L734.565 742.044C735.619 741.002 736.667 739.953 737.708 738.898L737.999 739.185C739.042 738.128 740.078 737.065 741.108 735.996L740.814 735.713C741.842 734.645 742.864 733.571 743.88 732.491L744.178 732.77C745.194 731.689 746.205 730.601 747.208 729.507L746.907 729.231C747.909 728.138 748.905 727.04 749.894 725.935L750.198 726.207C751.188 725.102 752.171 723.99 753.147 722.872L752.84 722.603C753.815 721.486 754.783 720.364 755.745 719.235L756.056 719.5C757.019 718.37 757.975 717.234 758.924 716.092L758.61 715.831C759.558 714.691 760.498 713.545 761.432 712.393L761.749 712.651C762.684 711.498 763.611 710.339 764.532 709.175L764.212 708.922C765.131 707.759 766.044 706.59 766.949 705.416L767.273 705.665C768.179 704.489 769.079 703.308 769.971 702.121L769.645 701.875C770.535 700.691 771.419 699.501 772.295 698.305L772.625 698.546C773.502 697.349 774.372 696.147 775.234 694.939L774.902 694.702C775.763 693.495 776.618 692.283 777.465 691.066L777.8 691.299C778.648 690.08 779.489 688.856 780.323 687.626L779.985 687.397C780.816 686.171 781.64 684.939 782.457 683.702L782.797 683.927C783.615 682.689 784.425 681.445 785.227 680.197L784.884 679.976C785.685 678.729 786.479 677.476 787.266 676.218L787.612 676.435C788.4 675.176 789.18 673.912 789.952 672.642L789.603 672.43C790.373 671.165 791.136 669.894 791.89 668.619L792.242 668.827C792.997 667.55 793.745 666.269 794.486 664.982L794.132 664.779C794.871 663.493 795.603 662.203 796.327 660.908L796.683 661.108C797.408 659.811 798.125 658.51 798.835 657.204L798.476 657.009C799.183 655.708 799.881 654.402 800.572 653.091L800.934 653.282C801.626 651.97 802.31 650.653 802.986 649.332L802.622 649.146C803.298 647.826 803.965 646.501 804.625 645.172L804.991 645.353C805.651 644.023 806.303 642.687 806.948 641.348L806.58 641.171C807.221 639.837 807.855 638.499 808.48 637.156L808.85 637.328C809.477 635.984 810.095 634.635 810.705 633.282L810.333 633.114C810.943 631.762 811.544 630.406 812.138 629.046L812.512 629.209C813.106 627.847 813.692 626.482 814.269 625.111L813.893 624.953C814.468 623.589 815.034 622.222 815.593 620.85L815.971 621.004C816.53 619.63 817.081 618.253 817.624 616.871L817.244 616.722C817.786 615.341 818.32 613.957 818.846 612.569L819.228 612.713C819.754 611.324 820.271 609.931 820.781 608.533L820.397 608.394C820.904 607.004 821.402 605.61 821.892 604.213L822.278 604.348C822.768 602.949 823.25 601.546 823.724 600.139L823.337 600.008C823.81 598.603 824.275 597.194 824.732 595.781L825.121 595.906C825.577 594.493 826.026 593.075 826.465 591.654L826.075 591.533C826.512 590.121 826.941 588.705 827.361 587.285L827.753 587.401C828.174 585.979 828.586 584.554 828.99 583.126L828.597 583.015C829 581.588 829.395 580.157 829.781 578.723L830.175 578.829C830.562 577.394 830.94 575.956 831.309 574.514L830.913 574.412C831.28 572.981 831.638 571.546 831.987 570.107L832.384 570.204C832.734 568.763 833.075 567.32 833.408 565.873L833.01 565.782C833.342 564.337 833.666 562.888 833.981 561.436L834.38 561.523C834.695 560.07 835.002 558.614 835.3 557.155L834.899 557.073C835.195 555.626 835.481 554.175 835.76 552.722L836.161 552.799C836.439 551.343 836.709 549.885 836.97 548.424L836.568 548.352C836.828 546.893 837.08 545.43 837.323 543.964L837.726 544.031C837.97 542.564 838.204 541.094 838.43 539.621L838.026 539.559C838.25 538.099 838.465 536.637 838.671 535.171L839.075 535.228C839.282 533.762 839.479 532.293 839.668 530.821L839.263 530.769C839.452 529.298 839.631 527.825 839.802 526.35L840.208 526.397C840.379 524.919 840.541 523.439 840.695 521.956L840.288 521.914C840.44 520.445 840.583 518.973 840.718 517.499L841.125 517.536C841.259 516.062 841.384 514.585 841.501 513.106L841.094 513.074C841.21 511.597 841.318 510.117 841.417 508.635L841.824 508.662C841.923 507.178 842.013 505.692 842.094 504.203L841.686 504.181C841.766 502.705 841.838 501.227 841.9 499.746L842.308 499.763C842.371 498.285 842.424 496.806 842.469 495.324L842.061 495.311C842.106 493.831 842.141 492.348 842.168 490.863L842.577 490.871C842.604 489.384 842.622 487.895 842.631 486.405L842.222 486.402C842.224 486.12 842.225 485.838 842.226 485.556C842.228 485.093 842.229 484.63 842.229 484.167C842.229 483.421 842.227 482.676 842.222 481.932L842.631 481.929C842.622 480.439 842.604 478.95 842.577 477.463L842.168 477.471C842.141 475.986 842.106 474.503 842.061 473.023L842.469 473.011C842.424 471.528 842.371 470.049 842.308 468.571L841.9 468.588C841.838 467.108 841.766 465.629 841.686 464.153L842.094 464.131C842.013 462.642 841.923 461.156 841.824 459.672L841.417 459.699C841.318 458.217 841.21 456.737 841.094 455.26L841.501 455.228C841.384 453.749 841.259 452.272 841.125 450.798L840.718 450.835C840.584 449.361 840.44 447.889 840.288 446.42L840.695 446.378C840.541 444.895 840.379 443.415 840.208 441.938L839.802 441.984C839.631 440.509 839.452 439.036 839.263 437.565L839.668 437.513C839.479 436.041 839.282 434.572 839.075 433.106L838.671 433.163C838.465 431.697 838.25 430.235 838.026 428.775L838.43 428.713C838.204 427.24 837.97 425.77 837.726 424.303L837.323 424.37C837.08 422.904 836.828 421.441 836.568 419.982L836.97 419.91C836.709 418.449 836.439 416.991 836.161 415.536L835.76 415.612C835.482 414.159 835.195 412.708 834.9 411.261L835.3 411.179C835.002 409.72 834.695 408.264 834.38 406.811L833.981 406.898C833.666 405.446 833.342 403.997 833.01 402.552L833.408 402.461C833.076 401.014 832.734 399.571 832.384 398.13L831.987 398.227C831.638 396.788 831.28 395.353 830.913 393.922L831.309 393.82C830.94 392.378 830.562 390.94 830.175 389.505L829.781 389.611C829.395 388.177 829 386.747 828.597 385.32L828.99 385.208C828.586 383.78 828.174 382.355 827.753 380.933L827.361 381.049C826.941 379.629 826.512 378.213 826.075 376.801L826.466 376.68C826.026 375.259 825.577 373.841 825.121 372.428L824.732 372.553C824.275 371.14 823.81 369.731 823.337 368.326L823.724 368.195C823.25 366.788 822.768 365.385 822.278 363.986L821.892 364.121C821.402 362.724 820.904 361.33 820.397 359.94L820.781 359.801C820.272 358.403 819.754 357.01 819.228 355.621L818.846 355.765C818.32 354.377 817.786 352.992 817.244 351.612L817.624 351.463C817.082 350.081 816.531 348.704 815.971 347.33L815.593 347.484C815.035 346.112 814.468 344.745 813.893 343.381L814.269 343.223C813.692 341.852 813.106 340.487 812.512 339.125L812.138 339.288C811.544 337.928 810.943 336.572 810.333 335.22L810.705 335.052C810.095 333.699 809.477 332.35 808.851 331.006L808.48 331.178C807.855 329.835 807.221 328.497 806.58 327.163L806.948 326.986C806.303 325.646 805.651 324.311 804.991 322.981L804.625 323.162C803.965 321.833 803.298 320.508 802.622 319.188L802.986 319.002C802.31 317.681 801.626 316.364 800.934 315.052L800.573 315.243C799.882 313.932 799.183 312.626 798.476 311.325L798.835 311.13C798.126 309.824 797.409 308.523 796.684 307.226L796.327 307.426C795.603 306.131 794.871 304.841 794.132 303.555L794.486 303.352C793.746 302.065 792.998 300.784 792.242 299.507L791.891 299.715C791.136 298.44 790.373 297.169 789.603 295.904L789.952 295.692C789.18 294.422 788.4 293.158 787.612 291.899L787.266 292.116C786.479 290.858 785.685 289.605 784.884 288.358L785.227 288.137C784.425 286.889 783.615 285.645 782.798 284.407L782.457 284.632C781.64 283.395 780.816 282.163 779.985 280.937L780.323 280.708C779.489 279.478 778.649 278.254 777.801 277.035L777.465 277.268C776.618 276.051 775.764 274.839 774.902 273.632L775.234 273.395C774.372 272.187 773.502 270.985 772.625 269.788L772.295 270.029C771.419 268.833 770.536 267.643 769.645 266.459L769.972 266.213C769.079 265.026 768.18 263.845 767.273 262.669L766.95 262.918C766.044 261.744 765.131 260.575 764.212 259.412L764.532 259.159C763.612 257.994 762.684 256.836 761.749 255.683L761.432 255.941C760.498 254.789 759.558 253.643 758.61 252.503L758.924 252.242C757.975 251.1 757.019 249.964 756.056 248.834L755.745 249.099C754.784 247.97 753.815 246.848 752.84 245.731L753.148 245.462C752.171 244.344 751.188 243.232 750.198 242.127L749.894 242.399C748.905 241.294 747.909 240.196 746.907 239.103L747.208 238.827C746.205 237.733 745.195 236.645 744.178 235.564L743.88 235.843C742.865 234.763 741.843 233.689 740.814 232.621L741.108 232.338C740.078 231.268 739.042 230.206 737.999 229.149L737.709 229.436C736.667 228.381 735.619 227.332 734.565 226.29L734.852 225.999C733.796 224.956 732.734 223.919 731.666 222.888L731.383 223.182C730.316 222.152 729.242 221.129 728.163 220.113L728.443 219.816C727.362 218.798 726.275 217.787 725.182 216.782L724.906 217.083C723.814 216.08 722.716 215.084 721.612 214.094L721.885 213.79C720.78 212.799 719.669 211.815 718.552 210.838L718.283 211.145C717.167 210.169 716.045 209.2 714.917 208.237L715.182 207.926C714.053 206.962 712.918 206.006 711.776 205.055L711.515 205.369C710.376 204.421 709.231 203.479 708.08 202.545L708.337 202.228C707.186 201.292 706.028 200.364 704.864 199.442L704.611 199.762C703.448 198.842 702.28 197.928 701.107 197.022L701.356 196.698C700.181 195.791 699.001 194.89 697.814 193.997L697.569 194.323C696.385 193.432 695.195 192.547 694 191.67L694.242 191.341C693.046 190.463 691.844 189.592 690.637 188.729L690.399 189.061C689.193 188.198 687.982 187.343 686.765 186.495L686.999 186.16C685.78 185.311 684.557 184.469 683.328 183.634L683.098 183.972C681.873 183.14 680.641 182.315 679.405 181.497L679.63 181.157C678.393 180.339 677.15 179.528 675.902 178.724L675.681 179.068C674.434 178.265 673.182 177.47 671.925 176.683L672.142 176.336C670.884 175.548 669.62 174.767 668.351 173.994L668.138 174.343C666.874 173.572 665.604 172.808 664.329 172.053L664.537 171.701C663.261 170.945 661.98 170.196 660.694 169.455L660.49 169.809C659.206 169.068 657.916 168.336 656.622 167.611L656.821 167.254C655.525 166.528 654.225 165.81 652.919 165.1L652.724 165.459C651.423 164.751 650.118 164.052 648.808 163.36L648.998 162.998C647.687 162.306 646.371 161.621 645.05 160.944L644.863 161.307C643.544 160.631 642.22 159.963 640.891 159.302L641.073 158.936C639.742 158.275 638.408 157.622 637.068 156.977L636.891 157.345C635.557 156.702 634.22 156.068 632.877 155.441L633.05 155.071C631.706 154.444 630.358 153.825 629.005 153.214L628.837 153.586C627.485 152.976 626.13 152.373 624.77 151.779L624.933 151.405C623.572 150.81 622.206 150.223 620.836 149.645L620.677 150.021C619.314 149.446 617.947 148.878 616.576 148.319L616.73 147.94C615.357 147.381 613.979 146.829 612.598 146.285L612.448 146.665C611.069 146.122 609.685 145.588 608.297 145.061L608.441 144.679C607.052 144.153 605.659 143.634 604.262 143.124L604.122 143.508C602.733 143 601.339 142.501 599.942 142.01L600.077 141.625C598.678 141.134 597.276 140.651 595.869 140.176L595.738 140.563C594.333 140.089 592.924 139.624 591.512 139.167L591.638 138.778C590.224 138.32 588.807 137.871 587.385 137.431L587.264 137.821C585.852 137.383 584.436 136.954 583.017 136.533L583.133 136.141C581.712 135.72 580.287 135.307 578.858 134.903L578.747 135.296C577.32 134.892 575.89 134.497 574.456 134.11L574.562 133.715C573.128 133.328 571.689 132.95 570.247 132.58L570.146 132.976C568.714 132.609 567.279 132.25 565.841 131.9L565.938 131.503C564.498 131.153 563.054 130.811 561.608 130.478L561.516 130.876C560.071 130.543 558.623 130.219 557.171 129.903L557.258 129.504C555.805 129.188 554.349 128.881 552.89 128.583L552.808 128.983C551.361 128.687 549.91 128.4 548.457 128.122L548.534 127.721C547.079 127.442 545.621 127.172 544.16 126.91L544.088 127.312C542.628 127.051 541.166 126.799 539.7 126.556L539.767 126.153C538.3 125.909 536.83 125.674 535.357 125.448L535.295 125.852C533.835 125.627 532.373 125.412 530.908 125.206L530.965 124.801C529.498 124.594 528.029 124.397 526.557 124.207L526.505 124.613C525.035 124.424 523.562 124.244 522.086 124.072L522.133 123.667C520.656 123.495 519.176 123.333 517.693 123.179L517.651 123.586C516.181 123.433 514.71 123.29 513.235 123.155L513.272 122.749C511.798 122.614 510.322 122.488 508.843 122.372L508.811 122.779C507.334 122.662 505.854 122.554 504.372 122.455L504.399 122.048C502.915 121.949 501.429 121.859 499.94 121.778L499.918 122.186C498.442 122.105 496.963 122.034 495.483 121.971L495.5 121.563C494.022 121.5 492.542 121.447 491.06 121.402L491.048 121.81C489.568 121.765 488.085 121.729 486.6 121.703L486.607 121.294C485.121 121.267 483.632 121.249 482.141 121.24L482.139 121.649C481.394 121.644 480.649 121.642 479.904 121.642C479.158 121.642 478.413 121.644 477.669 121.649L477.666 121.24C476.175 121.249 474.687 121.267 473.2 121.294L473.208 121.703C471.723 121.729 470.24 121.765 468.76 121.81L468.747 121.402C467.265 121.447 465.785 121.5 464.308 121.563L464.325 121.971C462.844 122.034 461.366 122.105 459.89 122.186L459.868 121.778C458.379 121.859 456.893 121.949 455.409 122.048L455.436 122.455C453.954 122.554 452.474 122.662 450.997 122.779L450.965 122.372C449.486 122.488 448.009 122.614 446.535 122.749L446.573 123.155C445.098 123.29 443.626 123.433 442.157 123.585L442.115 123.179C440.632 123.333 439.152 123.495 437.675 123.667L437.722 124.072C436.246 124.244 434.773 124.424 433.303 124.613L433.251 124.207C431.779 124.396 430.309 124.594 428.843 124.801L428.9 125.206C427.435 125.412 425.972 125.627 424.513 125.851L424.451 125.448C422.978 125.674 421.508 125.909 420.04 126.153L420.107 126.555C418.642 126.799 417.179 127.051 415.72 127.312L415.648 126.91C414.187 127.172 412.729 127.442 411.274 127.72L411.351 128.122C409.897 128.4 408.447 128.687 407 128.983L406.918 128.583C405.459 128.881 404.003 129.188 402.55 129.504L402.636 129.903C401.185 130.219 399.737 130.543 398.292 130.875L398.2 130.477C396.753 130.811 395.31 131.152 393.87 131.503L393.967 131.9C392.528 132.25 391.093 132.608 389.662 132.976L389.56 132.58C388.118 132.95 386.68 133.328 385.245 133.715L385.352 134.11C383.918 134.496 382.487 134.892 381.061 135.296L380.949 134.903C379.521 135.307 378.096 135.72 376.675 136.141L376.791 136.533C375.371 136.954 373.955 137.383 372.543 137.821L372.422 137.431C371.001 137.871 369.584 138.32 368.17 138.778L368.296 139.166C366.883 139.624 365.474 140.089 364.069 140.563L363.939 140.176C362.532 140.651 361.129 141.134 359.73 141.625L359.866 142.01C358.468 142.501 357.075 143 355.686 143.507L355.545 143.124C354.148 143.634 352.755 144.152 351.366 144.679L351.511 145.061C350.123 145.588 348.739 146.122 347.359 146.665L347.21 146.285C345.828 146.829 344.451 147.38 343.078 147.94L343.232 148.319C341.86 148.878 340.493 149.445 339.13 150.021L338.971 149.645C337.601 150.223 336.236 150.81 334.874 151.405L335.038 151.779C333.678 152.373 332.322 152.975 330.971 153.586L330.803 153.214C329.45 153.825 328.102 154.444 326.758 155.071L326.93 155.441C325.588 156.068 324.25 156.702 322.917 157.344L322.739 156.976C321.4 157.622 320.065 158.275 318.735 158.936L318.917 159.302C317.588 159.962 316.264 160.631 314.944 161.307L314.758 160.944C313.437 161.621 312.121 162.305 310.809 162.998L311 163.359C309.69 164.051 308.384 164.751 307.084 165.459L306.889 165.1C305.583 165.81 304.282 166.528 302.986 167.254L303.186 167.61C301.891 168.335 300.602 169.068 299.317 169.808L299.113 169.454C297.827 170.196 296.546 170.945 295.27 171.701L295.478 172.052C294.204 172.808 292.934 173.571 291.669 174.342L291.456 173.994C290.188 174.767 288.924 175.548 287.665 176.336L287.882 176.682C286.625 177.47 285.373 178.265 284.127 179.068L283.906 178.724C282.658 179.527 281.415 180.338 280.177 181.157L280.403 181.497C279.166 182.315 277.935 183.14 276.709 183.972L276.48 183.634C275.251 184.469 274.027 185.31 272.809 186.159L273.042 186.494C271.826 187.343 270.614 188.198 269.408 189.061L269.171 188.728C267.964 189.592 266.762 190.463 265.566 191.341L265.808 191.67C264.612 192.547 263.423 193.432 262.239 194.323L261.993 193.997C260.807 194.89 259.626 195.791 258.451 196.698L258.701 197.021C257.527 197.928 256.359 198.841 255.197 199.762L254.943 199.442C253.78 200.363 252.622 201.292 251.47 202.227L251.728 202.544C250.577 203.479 249.432 204.421 248.292 205.369L248.031 205.055C246.89 206.005 245.755 206.962 244.626 207.926L244.891 208.237C243.763 209.199 242.641 210.169 241.525 211.145L241.256 210.838C240.139 211.815 239.028 212.799 237.923 213.79L238.195 214.094C237.091 215.083 235.994 216.08 234.902 217.083L234.626 216.782C233.532 217.787 232.445 218.798 231.365 219.815L231.645 220.113C230.565 221.129 229.492 222.152 228.425 223.182L228.141 222.888C227.073 223.918 226.011 224.956 224.956 225.999L225.243 226.29C224.188 227.332 223.14 228.381 222.099 229.436L221.808 229.149C220.765 230.205 219.729 231.268 218.699 232.337L218.994 232.621C217.965 233.688 216.943 234.763 215.927 235.843L215.63 235.563C214.613 236.645 213.603 237.733 212.599 238.827L212.9 239.103C211.898 240.195 210.902 241.294 209.914 242.399L209.609 242.126C208.619 243.232 207.636 244.344 206.66 245.462L206.968 245.731C205.992 246.847 205.024 247.97 204.062 249.099L203.751 248.834C202.788 249.964 201.832 251.1 200.883 252.242L201.197 252.503C200.25 253.643 199.309 254.789 198.375 255.94L198.058 255.683C197.123 256.836 196.196 257.994 195.275 259.158L195.596 259.412C194.676 260.575 193.763 261.743 192.858 262.918L192.534 262.669C191.628 263.844 190.728 265.026 189.836 266.213L190.162 266.458C189.272 267.643 188.388 268.833 187.512 270.029L187.183 269.788C186.306 270.984 185.436 272.187 184.573 273.395L184.905 273.632C184.044 274.838 183.189 276.05 182.342 277.268L182.007 277.035C181.159 278.253 180.318 279.478 179.484 280.707L179.823 280.937C178.991 282.163 178.167 283.395 177.351 284.632L177.01 284.407C176.192 285.645 175.383 286.888 174.58 288.137L174.924 288.358C174.122 289.605 173.328 290.858 172.541 292.115L172.195 291.899C171.408 293.158 170.628 294.422 169.855 295.691L170.204 295.904C169.434 297.169 168.672 298.439 167.917 299.715L167.565 299.507C166.81 300.783 166.062 302.065 165.322 303.351L165.676 303.555C164.936 304.84 164.204 306.13 163.48 307.425L163.124 307.226C162.399 308.522 161.682 309.824 160.972 311.13L161.331 311.325C160.625 312.626 159.926 313.932 159.235 315.242L158.873 315.052C158.182 316.364 157.498 317.68 156.821 319.002L157.185 319.188C156.51 320.508 155.842 321.833 155.183 323.162L154.817 322.98C154.156 324.311 153.504 325.646 152.86 326.986L153.228 327.163C152.586 328.497 151.953 329.835 151.327 331.178L150.957 331.005C150.33 332.35 149.712 333.699 149.102 335.052L149.474 335.22C148.865 336.571 148.263 337.928 147.67 339.288L147.295 339.125C146.701 340.486 146.116 341.852 145.538 343.222L145.914 343.381C145.34 344.744 144.773 346.112 144.214 347.484L143.836 347.33C143.277 348.703 142.726 350.081 142.183 351.463L142.563 351.612C142.021 352.992 141.487 354.376 140.961 355.765L140.579 355.62C140.053 357.009 139.536 358.403 139.026 359.8L139.41 359.94C138.904 361.33 138.405 362.723 137.915 364.121L137.53 363.986C137.039 365.385 136.557 366.788 136.083 368.195L136.47 368.325C135.997 369.731 135.532 371.14 135.075 372.553L134.687 372.427C134.23 373.841 133.782 375.258 133.342 376.68L133.732 376.8C133.295 378.213 132.866 379.629 132.446 381.049L132.054 380.933C131.634 382.354 131.221 383.779 130.818 385.208L131.211 385.319C130.807 386.746 130.413 388.177 130.026 389.611L129.632 389.505C129.245 390.94 128.868 392.378 128.498 393.82L128.894 393.921C128.528 395.353 128.169 396.788 127.82 398.227L127.423 398.13C127.073 399.57 126.732 401.014 126.399 402.46L126.797 402.552C126.465 403.997 126.141 405.445 125.826 406.897L125.427 406.811C125.112 408.263 124.805 409.72 124.508 411.179L124.908 411.261C124.612 412.708 124.326 414.158 124.048 415.612L123.646 415.535C123.368 416.99 123.098 418.448 122.838 419.91L123.24 419.981C122.979 421.441 122.727 422.904 122.484 424.369L122.081 424.302C121.838 425.77 121.603 427.24 121.377 428.713L121.781 428.775C121.557 430.234 121.343 431.697 121.136 433.162L120.732 433.105C120.525 434.572 120.328 436.041 120.139 437.513L120.544 437.565C120.356 439.035 120.176 440.508 120.005 441.984L119.599 441.937C119.428 443.415 119.266 444.895 119.112 446.378L119.519 446.419C119.367 447.889 119.224 449.361 119.089 450.835L118.683 450.798C118.548 452.272 118.423 453.748 118.306 455.227L118.713 455.259C118.597 456.737 118.489 458.216 118.391 459.699L117.983 459.672C117.884 461.155 117.794 462.642 117.713 464.13L118.121 464.153C118.041 465.629 117.969 467.107 117.907 468.588L117.499 468.571C117.436 470.048 117.383 471.528 117.338 473.01L117.746 473.022C117.702 474.503 117.666 475.986 117.639 477.47L117.231 477.463C117.204 478.949 117.186 480.438 117.177 481.929L117.585 481.931C117.581 482.676 117.578 483.421 117.578 484.167C117.578 484.912 117.581 485.657 117.585 486.402L117.177 486.404C117.186 487.895 117.204 489.384 117.231 490.87L117.639 490.863C117.666 492.348 117.702 493.83 117.746 495.311L117.338 495.323C117.383 496.805 117.436 498.285 117.499 499.763L117.907 499.745C117.969 501.226 118.041 502.705 118.121 504.181L117.713 504.203C117.794 505.692 117.884 507.178 117.983 508.662L118.391 508.635C118.489 510.117 118.597 511.597 118.713 513.074L118.306 513.106C118.423 514.585 118.548 516.061 118.683 517.535L119.089 517.498C119.224 518.973 119.367 520.444 119.519 521.914L119.112 521.956C119.266 523.439 119.428 524.919 119.599 526.396L120.005 526.349C120.176 527.825 120.356 529.298 120.544 530.768L120.139 530.82C120.328 532.292 120.525 533.762 120.732 535.228L121.136 535.171C121.342 536.636 121.557 538.099 121.781 539.558L121.377 539.62C121.603 541.093 121.838 542.564 122.081 544.031L122.484 543.964C122.727 545.43 122.979 546.892 123.24 548.352L122.837 548.424C123.098 549.885 123.368 551.343 123.646 552.798L124.048 552.721C124.326 554.175 124.612 555.625 124.908 557.073L124.507 557.154C124.805 558.614 125.112 560.07 125.427 561.523L125.826 561.436C126.141 562.888 126.465 564.336 126.797 565.781L126.399 565.873C126.732 567.32 127.073 568.763 127.423 570.203L127.82 570.107C128.169 571.545 128.527 572.98 128.894 574.412L128.498 574.513C128.868 575.955 129.245 577.394 129.632 578.829L130.026 578.722C130.412 580.157 130.807 581.587 131.21 583.014L130.817 583.125C131.221 584.554 131.633 585.979 132.054 587.4L132.446 587.284C132.866 588.704 133.295 590.12 133.732 591.533L133.342 591.654C133.782 593.075 134.23 594.492 134.687 595.906L135.075 595.781C135.532 597.194 135.997 598.603 136.47 600.008L136.083 600.138C136.557 601.545 137.039 602.948 137.53 604.347L137.915 604.212C138.405 605.61 138.903 607.004 139.41 608.393L139.026 608.533C139.536 609.93 140.053 611.324 140.579 612.713L140.961 612.568C141.487 613.957 142.021 615.341 142.563 616.721L142.183 616.871C142.726 618.252 143.277 619.63 143.836 621.003L144.214 620.849C144.773 622.221 145.339 623.589 145.914 624.952L145.538 625.111C146.115 626.481 146.701 627.847 147.295 629.209L147.67 629.045C148.263 630.406 148.864 631.762 149.474 633.114L149.102 633.281C149.712 634.635 150.33 635.984 150.957 637.328L151.327 637.155C151.952 638.498 152.586 639.837 153.228 641.17L152.859 641.347C153.504 642.687 154.156 644.022 154.816 645.353L155.182 645.171C155.842 646.501 156.51 647.825 157.185 649.145L156.821 649.331C157.497 650.653 158.181 651.97 158.873 653.282L159.235 653.091C159.926 654.402 160.625 655.707 161.331 657.008L160.972 657.203C161.682 658.51 162.399 659.811 163.124 661.107L163.48 660.908C164.204 662.203 164.936 663.493 165.675 664.778L165.321 664.982C166.062 666.268 166.81 667.55 167.565 668.827L167.917 668.619C168.671 669.894 169.434 671.164 170.204 672.43L169.855 672.642C170.627 673.911 171.407 675.176 172.195 676.435L172.541 676.218C173.328 677.476 174.122 678.728 174.924 679.976L174.58 680.196C175.382 681.445 176.192 682.688 177.01 683.927L177.35 683.702C178.167 684.939 178.991 686.17 179.822 687.397L179.484 687.626C180.318 688.856 181.159 690.08 182.007 691.299L182.342 691.065C183.189 692.283 184.044 693.495 184.905 694.701L184.573 694.939C185.435 696.147 186.305 697.349 187.182 698.546L187.512 698.304C188.388 699.5 189.271 700.69 190.162 701.875L189.836 702.12C190.728 703.308 191.627 704.489 192.534 705.665L192.858 705.415C193.763 706.59 194.676 707.759 195.595 708.922L195.275 709.175C196.196 710.339 197.123 711.498 198.058 712.65L198.375 712.393C199.309 713.545 200.249 714.691 201.197 715.831L200.883 716.092C201.832 717.234 202.788 718.369 203.751 719.499L204.062 719.235C205.023 720.363 205.992 721.486 206.967 722.603L206.66 722.871C207.636 723.989 208.619 725.101 209.609 726.207L209.913 725.935C210.902 727.039 211.898 728.138 212.9 729.231L212.599 729.507C213.602 730.601 214.613 731.689 215.629 732.77L215.927 732.49C216.943 733.571 217.965 734.645 218.993 735.713L218.699 735.996C219.729 737.065 220.765 738.128 221.808 739.184L222.099 738.897C223.14 739.953 224.188 741.001 225.242 742.044L224.955 742.334C226.011 743.378 227.073 744.415 228.141 745.446L228.425 745.152C229.492 746.181 230.565 747.204 231.644 748.221L231.364 748.518C232.445 749.536 233.532 750.547 234.625 751.551L234.902 751.25C235.993 752.253 237.091 753.25 238.195 754.24L237.922 754.544C239.027 755.535 240.139 756.519 241.256 757.496L241.525 757.188C242.641 758.165 243.763 759.134 244.89 760.097L244.625 760.407C245.754 761.371 246.89 762.328 248.031 763.278L248.292 762.964C249.431 763.913 250.576 764.854 251.727 765.789L251.47 766.106C252.622 767.042 253.779 767.97 254.943 768.892L255.197 768.571C256.359 769.492 257.527 770.406 258.7 771.312L258.451 771.635C259.626 772.543 260.807 773.443 261.993 774.337L262.239 774.01C263.423 774.902 264.612 775.786 265.807 776.664L265.566 776.993C266.762 777.871 267.963 778.742 269.171 779.605L269.408 779.273C270.614 780.136 271.825 780.991 273.042 781.839L272.809 782.174C274.027 783.023 275.25 783.865 276.479 784.699L276.709 784.361C277.935 785.194 279.166 786.019 280.402 786.836L280.177 787.177C281.414 787.995 282.657 788.806 283.905 789.609L284.126 789.266C285.373 790.068 286.625 790.863 287.882 791.651L287.665 791.997C288.924 792.786 290.187 793.567 291.456 794.34L291.669 793.991C292.933 794.762 294.203 795.525 295.478 796.281L295.27 796.633C296.546 797.389 297.827 798.138 299.113 798.879L299.317 798.525C300.602 799.265 301.891 799.998 303.185 800.723L302.986 801.079C304.282 801.805 305.583 802.523 306.888 803.234L307.083 802.875C308.384 803.582 309.689 804.282 311 804.974L310.809 805.335C312.12 806.028 313.437 806.713 314.758 807.39L314.944 807.026C316.263 807.703 317.588 808.371 318.916 809.032L318.735 809.397C320.065 810.059 321.4 810.712 322.739 811.357L322.916 810.989C324.25 811.631 325.588 812.266 326.93 812.892L326.757 813.263C328.101 813.89 329.45 814.509 330.802 815.12L330.971 814.748C332.322 815.358 333.678 815.96 335.038 816.555L334.874 816.929C336.235 817.524 337.601 818.11 338.971 818.689L339.13 818.313C340.493 818.888 341.86 819.456 343.232 820.015L343.077 820.393C344.451 820.953 345.828 821.505 347.209 822.048L347.359 821.668C348.739 822.211 350.123 822.746 351.511 823.272L351.366 823.654C352.755 824.181 354.148 824.7 355.545 825.21L355.685 824.826C357.075 825.333 358.468 825.832 359.865 826.323L359.73 826.709C361.129 827.2 362.532 827.683 363.938 828.157L364.069 827.77C365.474 828.244 366.883 828.71 368.295 829.167L368.17 829.556C369.583 830.013 371.001 830.462 372.422 830.903L372.543 830.513C373.955 830.95 375.371 831.38 376.791 831.801L376.674 832.192C378.096 832.614 379.52 833.027 380.949 833.431L381.06 833.038C382.487 833.442 383.917 833.837 385.351 834.224L385.245 834.618C386.68 835.005 388.118 835.384 389.56 835.754L389.661 835.358C391.093 835.725 392.528 836.084 393.966 836.434L393.87 836.831C395.31 837.181 396.753 837.523 398.199 837.856L398.291 837.458C399.736 837.791 401.184 838.115 402.636 838.43L402.549 838.83C404.002 839.145 405.458 839.452 406.918 839.751L406.999 839.351C408.446 839.646 409.897 839.933 411.35 840.212L411.273 840.613C412.728 840.892 414.186 841.162 415.648 841.423L415.719 841.021C417.179 841.282 418.641 841.535 420.107 841.778L420.04 842.181C421.507 842.425 422.977 842.66 424.45 842.886L424.512 842.482C425.972 842.706 427.434 842.921 428.9 843.128L428.843 843.532C430.309 843.739 431.778 843.937 433.25 844.126L433.302 843.721C434.772 843.91 436.245 844.09 437.721 844.261L437.674 844.667C439.152 844.838 440.632 845.001 442.114 845.154L442.156 844.748C443.626 844.9 445.098 845.044 446.572 845.178L446.535 845.585C448.009 845.72 449.485 845.845 450.964 845.962L450.996 845.555C452.474 845.671 453.953 845.779 455.436 845.878L455.408 846.286C456.892 846.385 458.378 846.475 459.867 846.556L459.889 846.148C461.365 846.228 462.844 846.3 464.325 846.363L464.307 846.771C465.785 846.833 467.265 846.887 468.747 846.932L468.759 846.524C470.24 846.568 471.722 846.604 473.207 846.631L473.2 847.04Z" stroke="url(#paint1_linear_401_8170)" stroke-opacity="0.3" stroke-width="0.816958" stroke-dasharray="4.44 4.44" style="mix-blend-mode:screen"/>
</g>
<path fill-rule="evenodd" clip-rule="evenodd" d="M166.192 121.233L165.925 120.925C249.997 48.1412 359.646 4.07643 479.592 4.00012L479.592 4.00004L479.772 4.00004L479.839 4.00003C479.861 4.00002 479.882 4.00001 479.904 4.00001C479.925 4.00001 479.947 4.00002 479.968 4.00003L480.036 4.00004L480.409 4.00004L480.409 4.00028C600.279 4.12366 709.856 48.1802 793.883 120.925L793.616 121.233L792.985 122.05L480.42 527.001L480.409 527.016L480.409 652L479.592 652L479.592 527.266L479.388 527.001L166.823 122.05L166.192 121.233ZM482.198 4.82236C483.724 4.82951 485.249 4.84379 486.771 4.86518L486.763 5.01565C488.29 5.10437 489.809 5.22252 491.32 5.36954L491.36 4.95122C606.574 7.65395 711.722 51.0156 792.991 121.233L792.584 121.233L480.409 121.233L480.409 4.81804C481.006 4.82058 481.603 4.82762 482.198 4.83912L482.198 4.82236ZM479.592 4.81738L479.592 121.233L167.224 121.233L166.817 121.233C248.086 51.0157 353.233 7.65396 468.447 4.95122L468.488 5.36954C469.999 5.22251 471.518 5.10437 473.045 5.01565L473.036 4.86518C474.559 4.84379 476.083 4.82951 477.609 4.82236L477.61 4.83912C478.269 4.82638 478.93 4.81912 479.592 4.81738ZM791.953 122.05L480.409 122.05L480.409 525.679L791.953 122.05ZM479.592 122.05L479.592 525.929L167.855 122.05L479.592 122.05ZM362.67 121.233C362.67 120.462 362.678 119.692 362.693 118.923L363.51 118.939C363.495 119.702 363.487 120.467 363.487 121.233L362.67 121.233ZM362.87 114.327C362.96 112.79 363.079 111.26 363.227 109.739L364.04 109.818C363.893 111.328 363.775 112.848 363.686 114.375L362.87 114.327ZM363.763 105.162C363.972 103.637 364.211 102.12 364.478 100.614L365.282 100.757C365.017 102.253 364.78 103.758 364.572 105.273L363.763 105.162ZM365.371 96.0991C365.699 94.5965 366.056 93.1047 366.442 91.6242L367.232 91.8299C366.85 93.3 366.495 94.7814 366.169 96.2734L365.371 96.0991ZM367.69 87.191C368.136 85.7184 368.61 84.2581 369.112 82.8107L369.884 83.0784C369.385 84.5156 368.914 85.9657 368.471 87.4279L367.69 87.191ZM370.706 78.4915C371.267 77.0602 371.855 75.6427 372.469 74.2395L373.218 74.5673C372.607 75.9606 372.023 77.3683 371.467 78.7895L370.706 78.4915ZM374.399 70.0608C375.071 68.6785 375.769 67.3112 376.493 65.9599L377.213 66.3456C376.494 67.6875 375.801 69.0452 375.134 70.4179L374.399 70.0608ZM378.746 61.9443C379.524 60.6197 380.328 59.3117 381.155 58.0211L381.843 58.4621C381.021 59.7438 380.223 61.0427 379.451 62.3581L378.746 61.9443ZM383.717 54.1956C384.596 52.9367 385.499 51.6957 386.425 50.4736L387.076 50.9671C386.156 52.1808 385.259 53.4131 384.386 54.6633L383.717 54.1956ZM389.278 46.86C390.252 45.6738 391.25 44.507 392.27 43.3604L392.88 43.9032C391.868 45.0419 390.877 46.2006 389.909 47.3786L389.278 46.86ZM395.395 39.9804C396.459 38.8742 397.545 37.7889 398.651 36.7251L399.217 37.3139C398.119 38.3704 397.041 39.4482 395.984 40.5467L395.395 39.9804ZM402.031 33.5992C403.177 32.5796 404.344 31.5821 405.53 30.6074L406.049 31.2387C404.871 32.2066 403.712 33.1971 402.574 34.2097L402.031 33.5992ZM409.144 27.7549C410.366 26.8284 411.607 25.9252 412.866 25.0461L413.334 25.7159C412.084 26.5889 410.851 27.4858 409.638 28.406L409.144 27.7549ZM416.691 22.485C417.982 21.6571 419.29 20.8538 420.615 20.0758L421.028 20.7802C419.713 21.5528 418.414 22.3505 417.133 23.1727L416.691 22.485ZM424.63 17.8222C425.982 17.0984 427.349 16.4003 428.731 15.7285L429.088 16.4633C427.716 17.1304 426.358 17.8236 425.016 18.5423L424.63 17.8222ZM432.91 13.799C434.313 13.1843 435.731 12.5963 437.162 12.0357L437.46 12.7964C436.039 13.3531 434.631 13.9369 433.238 14.5473L432.91 13.799ZM441.481 10.4416C442.929 9.93968 444.389 9.46535 445.861 9.01921L446.098 9.80107C444.636 10.2441 443.186 10.7151 441.749 11.2134L441.481 10.4416ZM450.295 7.77134C451.775 7.38608 453.267 7.02902 454.769 6.70078L454.944 7.49892C453.452 7.82486 451.97 8.17941 450.5 8.56197L450.295 7.77134ZM459.284 5.8075C460.791 5.5402 462.307 5.30167 463.833 5.0925L463.944 5.90189C462.429 6.1096 460.923 6.34646 459.427 6.61189L459.284 5.8075ZM495.975 5.09251C497.501 5.30168 499.017 5.54021 500.523 5.80751L500.381 6.6119C498.885 6.34647 497.379 6.10961 495.864 5.9019L495.975 5.09251ZM505.038 6.70079C506.541 7.02903 508.033 7.38609 509.513 7.77135L509.307 8.56198C507.837 8.17942 506.356 7.82486 504.864 7.49893L505.038 6.70079ZM513.946 9.01922C515.419 9.46536 516.879 9.93969 518.327 10.4416L518.059 11.2135C516.622 10.7151 515.172 10.2441 513.709 9.80108L513.946 9.01922ZM522.646 12.0357C524.077 12.5963 525.495 13.1843 526.898 13.799L526.57 14.5473C525.177 13.9369 523.769 13.3531 522.348 12.7964L522.646 12.0357ZM531.076 15.7285C532.459 16.4003 533.826 17.0984 535.177 17.8222L534.792 18.5424C533.45 17.8236 532.092 17.1304 530.719 16.4633L531.076 15.7285ZM539.193 20.0758C540.518 20.8538 541.826 21.6571 543.116 22.485L542.675 23.1727C541.393 22.3505 540.095 21.5528 538.779 20.7802L539.193 20.0758ZM546.942 25.0461C548.201 25.9252 549.442 26.8284 550.664 27.755L550.17 28.406C548.956 27.4858 547.724 26.5889 546.474 25.716L546.942 25.0461ZM554.277 30.6075C555.463 31.5821 556.63 32.5796 557.777 33.5992L557.234 34.2097C556.095 33.1972 554.937 32.2066 553.759 31.2387L554.277 30.6075ZM561.157 36.7251C562.263 37.7889 563.348 38.8743 564.412 39.9804L563.823 40.5467C562.767 39.4482 561.689 38.3704 560.591 37.314L561.157 36.7251ZM567.538 43.3604C568.558 44.507 569.555 45.6738 570.53 46.86L569.899 47.3787C568.931 46.2006 567.94 45.0419 566.928 43.9033L567.538 43.3604ZM573.382 50.4736C574.309 51.6958 575.212 52.9367 576.091 54.1957L575.421 54.6634C574.548 53.4131 573.651 52.1808 572.731 50.9671L573.382 50.4736ZM578.652 58.0211C579.48 59.3118 580.283 60.6197 581.061 61.9444L580.357 62.3581C579.584 61.0427 578.787 59.7439 577.965 58.4622L578.652 58.0211ZM583.315 65.9599C584.039 67.3113 584.737 68.6785 585.409 70.0609L584.674 70.4179C584.007 69.0452 583.314 67.6876 582.595 66.3456L583.315 65.9599ZM587.338 74.2395C587.953 75.6427 588.541 77.0603 589.102 78.4915L588.341 78.7895C587.784 77.3683 587.2 75.9607 586.59 74.5673L587.338 74.2395ZM590.696 82.8108C591.198 84.2582 591.672 85.7185 592.118 87.191L591.336 87.4279C590.893 85.9657 590.422 84.5157 589.924 83.0784L590.696 82.8108ZM593.366 91.6242C593.751 93.1047 594.108 94.5965 594.436 96.0991L593.638 96.2735C593.312 94.7814 592.958 93.3 592.575 91.83L593.366 91.6242ZM595.33 100.614C595.597 102.12 595.836 103.637 596.045 105.163L595.235 105.273C595.028 103.758 594.791 102.253 594.525 100.757L595.33 100.614ZM596.581 109.739C596.729 111.26 596.848 112.79 596.937 114.327L596.122 114.375C596.033 112.848 595.915 111.328 595.768 109.818L596.581 109.739ZM597.115 118.924C597.13 119.692 597.137 120.462 597.137 121.233L596.32 121.233C596.32 120.467 596.313 119.702 596.298 118.939L597.115 118.924Z" fill="#36458A" fill-opacity="0.3" style="mix-blend-mode:screen"/>
<circle cx="1.63392" cy="1.63392" r="1.63392" transform="matrix(-4.37114e-08 1 1 4.37114e-08 164.559 120.008)" fill="#1D2E80"/>
<circle cx="1.63392" cy="1.63392" r="1.63392" transform="matrix(-4.37114e-08 1 1 4.37114e-08 236.752 212.324)" fill="#1D2E80"/>
<circle cx="1.63392" cy="1.63392" r="1.63392" transform="matrix(-4.37114e-08 1 1 4.37114e-08 719.573 212.324)" fill="#1D2E80"/>
<circle cx="1.63392" cy="1.63392" r="1.63392" transform="matrix(-4.37114e-08 1 1 4.37114e-08 791.982 120.008)" fill="#1D2E80"/>
<circle cx="2.04239" cy="2.04239" r="1.63392" transform="matrix(-4.37114e-08 1 1 4.37114e-08 477.861 2.36621)" fill="#1C104F" stroke="#6852C9" stroke-width="0.816958"/>
</g>
<defs>
<linearGradient id="paint0_linear_401_8170" x1="6.45719e-06" y1="479.085" x2="958.281" y2="479.085" gradientUnits="userSpaceOnUse">
<stop offset="0.255208" stop-color="#5D50A3"/>
<stop offset="0.625" stop-color="#5D50A3" stop-opacity="0"/>
</linearGradient>
<linearGradient id="paint1_linear_401_8170" x1="479.861" y1="121.233" x2="479.861" y2="847.1" gradientUnits="userSpaceOnUse">
<stop offset="0.255208" stop-color="#5D50A3"/>
<stop offset="0.625" stop-color="#5D50A3" stop-opacity="0"/>
</linearGradient>
<clipPath id="clip0_401_8170">
<rect width="960" height="380" fill="white"/>
</clipPath>
<clipPath id="clip1_401_8170">
<rect width="841.466" height="958.291" fill="white" transform="matrix(-4.37114e-08 1 1 4.37114e-08 0.757812 121.233)"/>
</clipPath>
</defs>
</svg>
