<svg width="43" height="42" viewBox="0 0 43 42" fill="none" xmlns="http://www.w3.org/2000/svg">
    <path opacity="0.05" fill-rule="evenodd" clip-rule="evenodd"
          d="M31.5 2H11.5C9.37497 2 7.42196 2.73648 5.88228 3.96813L15.1712 13.2571C16.8951 11.8464 19.0987 11 21.5 11C23.9013 11 26.1048 11.8464 27.8287 13.257L37.1177 3.96809C35.578 2.73647 33.625 2 31.5 2ZM26.4056 14.6801C25.0509 13.6271 23.3487 13 21.5 13C19.6513 13 17.949 13.6271 16.5943 14.6802L21.5 19.5858L26.4056 14.6801ZM13.757 14.6713L4.46807 5.38235C3.23646 6.92201 2.5 8.875 2.5 11V31C2.5 33.125 3.23647 35.078 4.46809 36.6177L13.757 27.3287C12.3464 25.6048 11.5 23.4013 11.5 21C11.5 18.5987 12.3464 16.3952 13.757 14.6713ZM15.1801 25.9056C14.1271 24.5509 13.5 22.8487 13.5 21C13.5 19.1513 14.1271 17.4491 15.1801 16.0944L20.0857 21L15.1801 25.9056ZM15.1713 28.7429L5.8823 38.0319C7.42197 39.2635 9.37498 40 11.5 40H31.5C33.625 40 35.578 39.2635 37.1176 38.0319L27.8287 28.743C26.1048 30.1536 23.9013 31 21.5 31C19.0987 31 16.8951 30.1536 15.1713 28.7429ZM26.4056 27.3199C25.0509 28.3729 23.3487 29 21.5 29C19.6513 29 17.949 28.3729 16.5943 27.3198L21.5 22.4142L26.4056 27.3199ZM27.8198 25.9057L22.9142 21L27.8198 16.0943C28.8729 17.449 29.5 19.1513 29.5 21C29.5 22.8487 28.8729 24.551 27.8198 25.9057ZM29.2429 27.3288C30.6536 25.6049 31.5 23.4013 31.5 21C31.5 18.5987 30.6536 16.3951 29.2429 14.6713L38.5319 5.3823C39.7635 6.92197 40.5 8.87498 40.5 11V31C40.5 33.125 39.7635 35.078 38.5319 36.6177L29.2429 27.3288ZM11.5 0C5.42487 0 0.5 4.92487 0.5 11V31C0.5 37.0751 5.42487 42 11.5 42H31.5C37.5751 42 42.5 37.0751 42.5 31V11C42.5 4.92487 37.5751 0 31.5 0H11.5Z"
          fill="#2EF2FF"/>
    <circle cx="21.5" cy="21" r="8.5" stroke="#2EF2FF" stroke-width="3"/>
</svg>
