<svg width="43" height="42" viewBox="0 0 43 42" fill="none" xmlns="http://www.w3.org/2000/svg">
    <path opacity="0.05" fill-rule="evenodd" clip-rule="evenodd"
          d="M31.5 1.99805H11.5C9.37497 1.99805 7.42196 2.73453 5.88228 3.96617L15.1712 13.2551C16.8951 11.8444 19.0987 10.998 21.5 10.998C23.9013 10.998 26.1048 11.8444 27.8287 13.2551L37.1177 3.96613C35.578 2.73451 33.625 1.99805 31.5 1.99805ZM26.4056 14.6782C25.0509 13.6251 23.3487 12.998 21.5 12.998C19.6513 12.998 17.949 13.6251 16.5943 14.6782L21.5 19.5838L26.4056 14.6782ZM13.757 14.6693L4.46807 5.3804C3.23646 6.92006 2.5 8.87305 2.5 10.998V30.998C2.5 33.1231 3.23647 35.076 4.46809 36.6157L13.757 27.3268C12.3464 25.6029 11.5 23.3993 11.5 20.998C11.5 18.5968 12.3464 16.3932 13.757 14.6693ZM15.1801 25.9037C14.1271 24.549 13.5 22.8468 13.5 20.998C13.5 19.1494 14.1271 17.4471 15.1801 16.0924L20.0857 20.9981L15.1801 25.9037ZM15.1713 28.741L5.8823 38.0299C7.42197 39.2616 9.37498 39.998 11.5 39.998H31.5C33.625 39.998 35.578 39.2616 37.1176 38.03L27.8287 28.741C26.1048 30.1517 23.9013 30.998 21.5 30.998C19.0987 30.998 16.8951 30.1517 15.1713 28.741ZM26.4056 27.3179C25.0509 28.371 23.3487 28.998 21.5 28.998C19.6513 28.998 17.949 28.371 16.5943 27.3179L21.5 22.4123L26.4056 27.3179ZM27.8198 25.9037L22.9142 20.9981L27.8198 16.0924C28.8729 17.4471 29.5 19.1493 29.5 20.998C29.5 22.8468 28.8729 24.549 27.8198 25.9037ZM29.2429 27.3268C30.6536 25.6029 31.5 23.3993 31.5 20.998C31.5 18.5968 30.6536 16.3932 29.2429 14.6693L38.5319 5.38034C39.7635 6.92002 40.5 8.87303 40.5 10.998V30.998C40.5 33.1231 39.7635 35.0761 38.5319 36.6158L29.2429 27.3268ZM11.5 -0.00195312C5.42487 -0.00195312 0.5 4.92292 0.5 10.998V30.998C0.5 37.0732 5.42487 41.998 11.5 41.998H31.5C37.5751 41.998 42.5 37.0732 42.5 30.998V10.998C42.5 4.92292 37.5751 -0.00195312 31.5 -0.00195312H11.5Z"
          fill="#2EF2FF"/>
    <g clip-path="url(#clip0_37_2554)">
        <path fill-rule="evenodd" clip-rule="evenodd"
              d="M32.4216 17.6343C32.3431 16.7266 32.1732 15.9791 31.8203 15.2583C31.7288 15.0715 31.6242 14.8979 31.5196 14.7244C31.0882 14.0437 30.5392 13.5231 29.8072 13.0025C29.1013 12.4953 28.1863 11.9613 27.0359 11.2806L26.9706 11.2405C25.8203 10.5598 24.9052 10.0259 24.1209 9.65211C23.3105 9.26501 22.5915 9.03809 21.8072 8.99805C21.598 8.99805 21.402 8.99805 21.1928 8.99805C20.4085 9.03809 19.6895 9.26501 18.8791 9.65211C18.0948 10.0259 17.1797 10.5598 16.0294 11.2405L15.9641 11.2806C14.8137 11.9613 13.8987 12.4953 13.1928 13.0025C12.4608 13.5231 11.9118 14.0437 11.4804 14.7244C11.3758 14.8979 11.2712 15.0848 11.1797 15.2583C10.8268 15.9791 10.6569 16.7266 10.5784 17.6343C10.5 18.5153 10.5 19.5965 10.5 20.958V21.0381C10.5 22.3996 10.5 23.4808 10.5784 24.3618C10.6569 25.2695 10.8268 26.017 11.1797 26.7378C11.2712 26.9246 11.3758 27.0982 11.4804 27.2717C11.9118 27.9524 12.4608 28.473 13.1928 28.9936C13.8987 29.5008 14.8137 30.0348 15.9641 30.7155L16.0294 30.7556C17.1797 31.4363 18.0948 31.9702 18.8791 32.344C19.6895 32.7311 20.4085 32.958 21.1928 32.998C21.402 32.998 21.598 32.998 21.8072 32.998C22.5915 32.958 23.3105 32.7311 24.1209 32.344C24.9052 31.9702 25.8203 31.4363 26.9706 30.7556L27.0359 30.7155C28.1863 30.0348 29.1013 29.5008 29.8072 28.9936C30.5392 28.473 31.0882 27.9524 31.5196 27.2717C31.6242 27.0982 31.7288 26.9113 31.8203 26.7378C32.1732 26.017 32.3431 25.2695 32.4216 24.3618C32.5 23.4808 32.5 22.3996 32.5 21.0381V20.958C32.5 19.5965 32.5 18.5153 32.4216 17.6343ZM26.7876 22.1727C24.1993 23.0537 23.4935 23.7745 22.6307 26.4174C22.2516 27.5653 20.6961 27.5653 20.317 26.4174C19.4542 23.7745 18.7484 23.0537 16.1601 22.1727C15.598 21.9858 15.3105 21.4919 15.3105 20.998C15.3105 20.5042 15.598 20.0103 16.1601 19.8234C18.7484 18.9424 19.4542 18.2216 20.317 15.5787C20.6961 14.4307 22.2516 14.4307 22.6307 15.5787C23.4935 18.2216 24.1993 18.9424 26.7876 19.8234C27.9118 20.2105 27.9118 21.7989 26.7876 22.186V22.1727Z"
              fill="#EAEDFF"/>
    </g>
    <defs>
        <clipPath id="clip0_37_2554">
            <rect width="24" height="24" fill="white" transform="translate(9.5 8.99805)"/>
        </clipPath>
    </defs>
</svg>
