<svg width="40" height="40" viewBox="0 0 40 40" fill="none" xmlns="http://www.w3.org/2000/svg">
    <path fill-rule="evenodd" clip-rule="evenodd"
          d="M39.2731 19.8709C40.2351 18.8873 40.2445 17.2957 39.2942 16.3004L24.8403 1.16302C23.8028 0.0763926 21.9986 0.827389 21.9986 2.34592V16.5862C21.9986 17.239 22.2444 17.8667 22.685 18.3391L30.3423 26.5492C30.9843 27.2375 32.0546 27.2506 32.7124 26.5781L39.2731 19.8709ZM10.2222 25.8981C9.25887 26.9282 7.65543 26.9465 6.66982 25.9387L0.727677 19.8631C-0.234785 18.879 -0.24362 17.2863 0.707862 16.2911L15.1618 1.17319C16.1996 0.0876663 18.0024 0.838988 18.0024 2.35703V16.5599C18.0024 17.214 17.7557 17.8429 17.3136 18.3156L10.2222 25.8981ZM12.4712 28.5201C11.2745 29.7435 11.2745 31.7271 12.4712 32.9506L17.8377 38.4369C19.0344 39.6603 20.9747 39.6603 22.1714 38.4369L27.461 33.0291C28.6578 31.8056 28.6578 29.8221 27.461 28.5986L22.0946 23.1123C20.8979 21.8888 18.9576 21.8888 17.7609 23.1123L12.4712 28.5201Z"
          fill="#2EF2FF"/>
</svg>
