<svg width="43" height="42" viewBox="0 0 43 42" fill="none" xmlns="http://www.w3.org/2000/svg">
    <path opacity="0.05" fill-rule="evenodd" clip-rule="evenodd"
          d="M31.1829 2H11.1829C9.05783 2 7.10482 2.73648 5.56514 3.96813L14.8541 13.2571C16.578 11.8464 18.7816 11 21.1829 11C23.5841 11 25.7877 11.8464 27.5116 13.257L36.8005 3.96809C35.2609 2.73647 33.3079 2 31.1829 2ZM26.0885 14.6801C24.7338 13.6271 23.0316 13 21.1829 13C19.3341 13 17.6319 13.6271 16.2772 14.6802L21.1828 19.5858L26.0885 14.6801ZM13.4399 14.6713L4.15094 5.38235C2.91932 6.92201 2.18286 8.875 2.18286 11V31C2.18286 33.125 2.91933 35.078 4.15095 36.6177L13.4399 27.3287C12.0292 25.6048 11.1829 23.4013 11.1829 21C11.1829 18.5987 12.0292 16.3952 13.4399 14.6713ZM14.863 25.9056C13.8099 24.5509 13.1829 22.8487 13.1829 21C13.1829 19.1513 13.8099 17.4491 14.863 16.0944L19.7686 21L14.863 25.9056ZM14.8541 28.7429L5.56516 38.0319C7.10483 39.2635 9.05784 40 11.1829 40H31.1829C33.3079 40 35.2608 39.2635 36.8005 38.0319L27.5116 28.743C25.7877 30.1536 23.5841 31 21.1829 31C18.7816 31 16.578 30.1536 14.8541 28.7429ZM26.0885 27.3199C24.7338 28.3729 23.0316 29 21.1829 29C19.3341 29 17.6319 28.3729 16.2772 27.3198L21.1828 22.4142L26.0885 27.3199ZM27.5027 25.9057L22.597 21L27.5027 16.0943C28.5558 17.449 29.1829 19.1513 29.1829 21C29.1829 22.8487 28.5558 24.551 27.5027 25.9057ZM28.9258 27.3288C30.3365 25.6049 31.1829 23.4013 31.1829 21C31.1829 18.5987 30.3365 16.3951 28.9258 14.6713L38.2147 5.3823C39.4464 6.92197 40.1829 8.87498 40.1829 11V31C40.1829 33.125 39.4464 35.078 38.2147 36.6177L28.9258 27.3288ZM11.1829 0C5.10773 0 0.182861 4.92487 0.182861 11V31C0.182861 37.0751 5.10773 42 11.1829 42H31.1829C37.258 42 42.1829 37.0751 42.1829 31V11C42.1829 4.92487 37.258 0 31.1829 0H11.1829Z"
          fill="#2EF2FF"/>
    <g clip-path="url(#clip0_37_2785)">
        <path fill-rule="evenodd" clip-rule="evenodd"
              d="M28.7927 22.5435C29.3627 21.5934 29.3627 20.4066 28.7927 19.4565L26.3247 15.3433C25.7825 14.4396 24.806 13.8868 23.7522 13.8868L18.6135 13.8868C17.5597 13.8868 16.5832 14.4396 16.041 15.3433L13.5731 19.4565C13.003 20.4066 13.003 21.5934 13.5731 22.5435L16.041 26.6567C16.5832 27.5604 17.5597 28.1132 18.6135 28.1132L23.7522 28.1132C24.806 28.1132 25.7825 27.5604 26.3247 26.6567L28.7927 22.5435ZM25.4843 31C26.5381 31 27.5146 30.4471 28.0568 29.5435L32.2568 22.5435C32.8268 21.5934 32.8268 20.4066 32.2568 19.4565L28.0568 12.4565C27.5146 11.5529 26.5381 11 25.4843 11L16.8814 11C15.8276 11 14.8511 11.5529 14.309 12.4565L10.109 19.4565C9.53892 20.4066 9.53892 21.5934 10.109 22.5435L14.309 29.5435C14.8511 30.4471 15.8276 31 16.8814 31L25.4843 31Z"
              fill="#2EF2FF"/>
    </g>
    <defs>
        <clipPath id="clip0_37_2785">
            <rect width="24" height="24" fill="white" transform="translate(9.18286 9)"/>
        </clipPath>
    </defs>
</svg>
