<svg width="60" height="60" viewBox="0 0 60 60" fill="none" xmlns="http://www.w3.org/2000/svg">
    <path fill-rule="evenodd" clip-rule="evenodd"
          d="M54.0605 22.533L37.467 5.93954C35.704 4.17645 33.4725 3.16713 31.1732 2.91157L31.1732 18.3251C33.7739 18.5849 36.3044 19.711 38.2967 21.7033C40.289 23.6956 41.4151 26.2261 41.6749 28.8268L57.0885 28.8268C56.8329 26.5275 55.8236 24.2961 54.0605 22.533ZM39.3135 28.8268C39.0633 26.8291 38.1712 24.8965 36.6374 23.3626C35.1035 21.8288 33.1709 20.9367 31.1732 20.6865L31.1732 28.8268L39.3135 28.8268ZM28.8266 18.3251L28.8266 2.9116C26.5273 3.16719 24.296 4.17651 22.533 5.93954L5.93951 22.533C4.17642 24.2961 3.1671 26.5275 2.91154 28.8268L18.3251 28.8268C18.5849 26.2261 19.711 23.6956 21.7033 21.7033C23.6955 19.711 26.2259 18.585 28.8266 18.3251ZM20.6865 28.8268C20.9367 26.8291 21.8288 24.8965 23.3626 23.3626C24.8964 21.8288 26.829 20.9368 28.8266 20.6865V28.8268L20.6865 28.8268ZM18.3251 31.1735H2.91157C3.16717 33.4727 4.17648 35.704 5.93952 37.4671L22.533 54.0605C24.296 55.8235 26.5273 56.8329 28.8266 57.0885L28.8266 41.6748C26.2259 41.415 23.6955 40.2889 21.7033 38.2967C19.7111 36.3045 18.585 33.7741 18.3251 31.1735ZM28.8266 39.3134C26.829 39.0632 24.8964 38.1712 23.3626 36.6374C21.8288 35.1036 20.9368 33.1711 20.6865 31.1735L28.8266 31.1735L28.8266 39.3134ZM31.1732 39.3135L31.1732 31.1735L39.3135 31.1735C39.0632 33.1711 38.1712 35.1036 36.6374 36.6374C35.1035 38.1712 33.1709 39.0632 31.1732 39.3135ZM31.1732 41.6749C33.7739 41.415 36.3044 40.289 38.2967 38.2967C40.2889 36.3045 41.415 33.7741 41.6749 31.1735L57.0884 31.1735C56.8328 33.4727 55.8235 35.704 54.0605 37.4671L37.467 54.0605C35.704 55.8236 33.4725 56.8329 31.1732 57.0885L31.1732 41.6749ZM39.1264 4.2802C34.086 -0.760166 25.914 -0.760166 20.8736 4.2802L4.28017 20.8736C-0.760194 25.914 -0.760195 34.0861 4.28017 39.1264L20.8736 55.7199C25.914 60.7602 34.086 60.7602 39.1264 55.7199L55.7198 39.1264C60.7602 34.0861 60.7602 25.914 55.7198 20.8736L39.1264 4.2802Z"
          fill="#2EF2FF" fill-opacity="0.05"/>
</svg>
