<svg width="43" height="42" viewBox="0 0 43 42" fill="none" xmlns="http://www.w3.org/2000/svg">
    <path opacity="0.05" fill-rule="evenodd" clip-rule="evenodd"
          d="M31.5 1.99805H11.5C9.37497 1.99805 7.42196 2.73453 5.88228 3.96617L15.1712 13.2551C16.8951 11.8444 19.0987 10.998 21.5 10.998C23.9013 10.998 26.1048 11.8444 27.8287 13.2551L37.1177 3.96613C35.578 2.73451 33.625 1.99805 31.5 1.99805ZM26.4056 14.6782C25.0509 13.6251 23.3487 12.998 21.5 12.998C19.6513 12.998 17.949 13.6251 16.5943 14.6782L21.5 19.5838L26.4056 14.6782ZM13.757 14.6693L4.46807 5.3804C3.23646 6.92006 2.5 8.87305 2.5 10.998V30.998C2.5 33.1231 3.23647 35.076 4.46809 36.6157L13.757 27.3268C12.3464 25.6029 11.5 23.3993 11.5 20.998C11.5 18.5968 12.3464 16.3932 13.757 14.6693ZM15.1801 25.9037C14.1271 24.549 13.5 22.8468 13.5 20.998C13.5 19.1494 14.1271 17.4471 15.1801 16.0924L20.0857 20.9981L15.1801 25.9037ZM15.1713 28.741L5.8823 38.0299C7.42197 39.2616 9.37498 39.998 11.5 39.998H31.5C33.625 39.998 35.578 39.2616 37.1176 38.03L27.8287 28.741C26.1048 30.1517 23.9013 30.998 21.5 30.998C19.0987 30.998 16.8951 30.1517 15.1713 28.741ZM26.4056 27.3179C25.0509 28.371 23.3487 28.998 21.5 28.998C19.6513 28.998 17.949 28.371 16.5943 27.3179L21.5 22.4123L26.4056 27.3179ZM27.8198 25.9037L22.9142 20.9981L27.8198 16.0924C28.8729 17.4471 29.5 19.1493 29.5 20.998C29.5 22.8468 28.8729 24.549 27.8198 25.9037ZM29.2429 27.3268C30.6536 25.6029 31.5 23.3993 31.5 20.998C31.5 18.5968 30.6536 16.3932 29.2429 14.6693L38.5319 5.38034C39.7635 6.92002 40.5 8.87303 40.5 10.998V30.998C40.5 33.1231 39.7635 35.0761 38.5319 36.6158L29.2429 27.3268ZM11.5 -0.00195312C5.42487 -0.00195312 0.5 4.92292 0.5 10.998V30.998C0.5 37.0732 5.42487 41.998 11.5 41.998H31.5C37.5751 41.998 42.5 37.0732 42.5 30.998V10.998C42.5 4.92292 37.5751 -0.00195312 31.5 -0.00195312H11.5Z"
          fill="#2EF2FF"/>
    <g clip-path="url(#clip0_37_2512)">
        <path fill-rule="evenodd" clip-rule="evenodd"
              d="M32.833 13.505L31.4722 13.1183C30.445 12.825 29.6579 12.0383 29.3644 11.025L28.9775 9.66496C28.8574 9.27829 28.4972 8.99829 28.0837 8.99829C27.6701 8.99829 27.3099 9.27829 27.1898 9.66496L26.8029 11.025C26.5095 12.0516 25.7223 12.825 24.6951 13.1183L23.3344 13.505C22.9341 13.6116 22.6673 13.985 22.6673 14.3983C22.6673 14.8116 22.9475 15.1716 23.3344 15.2783L24.6951 15.665C25.7223 15.9583 26.5095 16.745 26.8029 17.7583L27.1898 19.1183C27.2966 19.505 27.6568 19.7716 28.0837 19.7716C28.5106 19.7716 28.8574 19.505 28.9775 19.1183L29.3644 17.7583C29.6579 16.7316 30.445 15.9583 31.4722 15.665L32.833 15.2783C33.2332 15.1716 33.5 14.7983 33.5 14.385C33.5 13.9716 33.2198 13.6116 32.833 13.505ZM29.0043 24.4116L16.9842 17.3583C16.2238 16.905 15.2766 17.5583 15.4234 18.425L17.7046 32.1316C17.8514 32.9983 18.972 33.305 19.5457 32.625L23.081 28.385C23.201 28.2383 23.3745 28.1316 23.5612 28.065L28.8175 26.3183C29.6713 26.0383 29.7914 24.8916 29.0176 24.4383L29.0043 24.4116ZM13.2087 11.1983C13.6356 12.505 13.9958 12.865 15.3166 13.305C15.8902 13.4916 15.8902 14.2916 15.3166 14.4783C14.0092 14.9183 13.649 15.2783 13.2087 16.585C13.022 17.1583 12.2215 17.1583 12.0347 16.585C11.6078 15.2783 11.2476 14.9183 9.9269 14.4783C9.64675 14.385 9.5 14.145 9.5 13.8916C9.5 13.6383 9.64675 13.3983 9.9269 13.305C11.2343 12.865 11.5945 12.505 12.0347 11.1983C12.2215 10.625 13.022 10.625 13.2087 11.1983Z"
              fill="#EAEDFF"/>
    </g>
    <defs>
        <clipPath id="clip0_37_2512">
            <rect width="24" height="24" fill="white" transform="translate(9.5 8.99805)"/>
        </clipPath>
    </defs>
</svg>
