<svg width="18" height="18" viewBox="0 0 18 18" fill="none" xmlns="http://www.w3.org/2000/svg">
    <path fill-rule="evenodd" clip-rule="evenodd"
          d="M5.93602 9.3225C6.63633 7.2225 7.20658 6.6425 9.3075 5.9425C10.2179 5.6425 10.2179 4.3725 9.3075 4.0625C7.20658 3.3625 6.63633 2.7925 5.93602 0.6825C5.63589 -0.2275 4.36533 -0.2275 4.05519 0.6825C3.35489 2.7825 2.78463 3.3625 0.683712 4.0625C0.223509 4.2125 -0.0065918 4.6025 -0.0065918 5.0025C-0.0065918 5.4025 0.223509 5.7925 0.683712 5.9425C2.78463 6.6425 3.35489 7.2125 4.05519 9.3225C4.35533 10.2325 5.62588 10.2325 5.93602 9.3225ZM8.66722 15.2025C7.66678 14.8725 7.39666 14.6025 7.06652 13.6025C6.92646 13.1725 6.32619 13.1725 6.17612 13.6025C5.84598 14.6025 5.57586 14.8725 4.57542 15.2025C4.35532 15.2725 4.24528 15.4625 4.24528 15.6425C4.24528 15.8225 4.35532 16.0125 4.57542 16.0825C5.57586 16.4125 5.84598 16.6825 6.17612 17.6825C6.31619 18.1125 6.91645 18.1125 7.06652 17.6825C7.39666 16.6825 7.66678 16.4125 8.66722 16.0825C9.09741 15.9425 9.09741 15.3425 8.66722 15.1925V15.2025ZM11.8081 6.71134L9.68626 8.83304C8.75971 9.75951 8.75997 11.2727 9.68685 12.1989L11.8095 14.3198C12.7364 15.246 14.2502 15.2457 15.1768 14.3192L17.2987 12.1975C18.2252 11.2711 18.225 9.75785 17.2981 8.83171L15.1755 6.71076C14.2486 5.78461 12.7347 5.78487 11.8081 6.71134Z"
          fill="#2EF2FF"/>
</svg>
