<svg xmlns="http://www.w3.org/2000/svg" width="162" height="56" fillRule="evenodd">
    <path fill="#3c52d9"
          d="M55.27 23.196c.973.99.973 2.594 0 3.583L45.083 37.141a1.64 1.64 0 0 1-2.349 0L30.85 25.052c-.467-.475-.73-1.12-.73-1.792V1.693c0-1.505 1.789-2.259 2.835-1.194l22.314 22.698.001-.001zM10.301 36.504a2.46 2.46 0 0 0 3.523 0l11.29-11.485c.467-.475.729-1.12.729-1.792V1.713c0-1.505-1.789-2.259-2.835-1.195L.73 23.183c-.973.99-.973 2.594 0 3.584l9.571 9.737z"/>
    <g fillRule="nonzero">
        <rect width="18.967" height="19.118" x="18.469" y="32.859" fill="#2ef2ff" rx="3.099"
              transform="rotate(315 27.952 42.418)"/>
        <path fill="#eaedff"
              d="M84.267 39.767l-4.595-6.606-3.924 6.606h-7.48l7.681-11.983-7.95-11.42h7.748l4.461 6.44 3.824-6.44h7.48l-7.58 11.784 8.084 11.618h-7.748l-.001.001zm17.987.232c-2.214 0-4.249-.509-6.105-1.527-1.856-1.04-3.332-2.467-4.427-4.282-1.073-1.837-1.61-3.906-1.61-6.208s.537-4.36 1.61-6.174a11.53 11.53 0 0 1 4.427-4.282c1.856-1.018 3.891-1.527 6.105-1.527 2.236 0 4.27.509 6.104 1.527 1.856 1.018 3.321 2.445 4.394 4.282 1.073 1.815 1.61 3.873 1.61 6.174s-.537 4.371-1.61 6.208a11.6 11.6 0 0 1-4.394 4.282c-1.856 1.018-3.891 1.527-6.104 1.527h0zm0-6.041c1.677 0 2.996-.542 3.957-1.626.984-1.084 1.476-2.534 1.476-4.349 0-1.859-.492-3.319-1.476-4.382-.961-1.084-2.28-1.627-3.957-1.627-1.7 0-3.03.542-3.992 1.627-.962 1.062-1.442 2.523-1.442 4.382 0 1.837.481 3.297 1.442 4.382.962 1.062 2.292 1.593 3.992 1.593zm26.031 5.809l-4.695-8.631h-.705v8.631h-6.574V16.364h10.364c1.901 0 3.511.332 4.83.996 1.32.642 2.315 1.538 2.986 2.689.67 1.129 1.006 2.401 1.006 3.817 0 1.593-.447 2.999-1.342 4.216-.872 1.195-2.158 2.047-3.857 2.556l5.333 9.129h-7.346 0zm-5.4-13.079h3.254c.894 0 1.565-.21 2.012-.631s.671-1.029.671-1.826c0-.752-.235-1.339-.704-1.759-.448-.443-1.107-.664-1.979-.664h-3.254v4.88h0zm30.896 9.261h-8.385l-1.275 3.818h-6.909l8.62-23.402h7.58l8.587 23.403h-6.943l-1.275-3.818v-.001zm-1.643-4.979l-2.549-7.568-2.516 7.569h5.065v-.001z"/>
    </g>
</svg>