<svg width="43" height="42" viewBox="0 0 43 42" fill="none" xmlns="http://www.w3.org/2000/svg">
    <path opacity="0.05" fill-rule="evenodd" clip-rule="evenodd"
          d="M31.5 1.99805H11.5C9.37497 1.99805 7.42196 2.73453 5.88228 3.96617L15.1712 13.2551C16.8951 11.8444 19.0987 10.998 21.5 10.998C23.9013 10.998 26.1048 11.8444 27.8287 13.2551L37.1177 3.96613C35.578 2.73451 33.625 1.99805 31.5 1.99805ZM26.4056 14.6782C25.0509 13.6251 23.3487 12.998 21.5 12.998C19.6513 12.998 17.949 13.6251 16.5943 14.6782L21.5 19.5838L26.4056 14.6782ZM13.757 14.6693L4.46807 5.3804C3.23646 6.92006 2.5 8.87305 2.5 10.998V30.998C2.5 33.1231 3.23647 35.076 4.46809 36.6157L13.757 27.3268C12.3464 25.6029 11.5 23.3993 11.5 20.998C11.5 18.5968 12.3464 16.3932 13.757 14.6693ZM15.1801 25.9037C14.1271 24.549 13.5 22.8468 13.5 20.998C13.5 19.1494 14.1271 17.4471 15.1801 16.0924L20.0857 20.9981L15.1801 25.9037ZM15.1713 28.741L5.8823 38.0299C7.42197 39.2616 9.37498 39.998 11.5 39.998H31.5C33.625 39.998 35.578 39.2616 37.1176 38.03L27.8287 28.741C26.1048 30.1517 23.9013 30.998 21.5 30.998C19.0987 30.998 16.8951 30.1517 15.1713 28.741ZM26.4056 27.3179C25.0509 28.371 23.3487 28.998 21.5 28.998C19.6513 28.998 17.949 28.371 16.5943 27.3179L21.5 22.4123L26.4056 27.3179ZM27.8198 25.9037L22.9142 20.9981L27.8198 16.0924C28.8729 17.4471 29.5 19.1493 29.5 20.998C29.5 22.8468 28.8729 24.549 27.8198 25.9037ZM29.2429 27.3268C30.6536 25.6029 31.5 23.3993 31.5 20.998C31.5 18.5968 30.6536 16.3932 29.2429 14.6693L38.5319 5.38034C39.7635 6.92002 40.5 8.87303 40.5 10.998V30.998C40.5 33.1231 39.7635 35.0761 38.5319 36.6158L29.2429 27.3268ZM11.5 -0.00195312C5.42487 -0.00195312 0.5 4.92292 0.5 10.998V30.998C0.5 37.0732 5.42487 41.998 11.5 41.998H31.5C37.5751 41.998 42.5 37.0732 42.5 30.998V10.998C42.5 4.92292 37.5751 -0.00195312 31.5 -0.00195312H11.5Z"
          fill="#2EF2FF"/>
    <path fill-rule="evenodd" clip-rule="evenodd"
          d="M12 26.4981C12 25.9458 12.4477 25.4981 13 25.4981H18.5C19.0523 25.4981 19.5 25.9458 19.5 26.4981C19.5 27.0504 19.0523 27.4981 18.5 27.4981H13C12.4477 27.4981 12 27.0504 12 26.4981Z"
          fill="#EAEDFF"/>
    <path fill-rule="evenodd" clip-rule="evenodd"
          d="M10.5 20.9981C10.5 20.4458 10.9477 19.9981 11.5 19.9981H16C16.5523 19.9981 17 20.4458 17 20.9981C17 21.5504 16.5523 21.9981 16 21.9981H11.5C10.9477 21.9981 10.5 21.5504 10.5 20.9981Z"
          fill="#EAEDFF"/>
    <path fill-rule="evenodd" clip-rule="evenodd"
          d="M12.5 15.4981C12.5 14.9458 12.9477 14.4981 13.5 14.4981H18.5C19.0523 14.4981 19.5 14.9458 19.5 15.4981C19.5 16.0504 19.0523 16.4981 18.5 16.4981H13.5C12.9477 16.4981 12.5 16.0504 12.5 15.4981Z"
          fill="#EAEDFF"/>
    <path fill-rule="evenodd" clip-rule="evenodd"
          d="M26.8676 11.0681C27.2947 11.237 27.5519 11.675 27.4912 12.1303L26.6422 18.4981H30.4454C30.4569 18.4981 30.4684 18.4981 30.4799 18.4981C30.7007 18.4981 30.9295 18.498 31.1185 18.5153C31.3044 18.5323 31.6426 18.5773 31.9449 18.8107C32.2975 19.0828 32.5109 19.4975 32.5274 19.9425C32.5415 20.3242 32.3816 20.6256 32.2874 20.7867C32.1916 20.9505 32.0586 21.1367 31.9302 21.3163C31.9235 21.3257 31.9168 21.335 31.9102 21.3444L25.3137 30.5794C25.0468 30.9531 24.5596 31.0969 24.1324 30.9281C23.7053 30.7593 23.4481 30.3212 23.5088 29.866L24.3578 23.4981H20.5546C20.5431 23.4981 20.5316 23.4981 20.5201 23.4981C20.2993 23.4982 20.0705 23.4982 19.8815 23.481C19.6956 23.464 19.3574 23.4189 19.0551 23.1856C18.7025 22.9135 18.4891 22.4988 18.4726 22.0537C18.4585 21.6721 18.6184 21.3707 18.7126 21.2095C18.8084 21.0457 18.9414 20.8596 19.0698 20.68C19.0765 20.6706 19.0832 20.6612 19.0898 20.6519L25.6863 11.4169C25.9532 11.0432 26.4404 10.8993 26.8676 11.0681Z"
          fill="#EAEDFF"/>
</svg>
