<svg width="194" height="48" viewBox="0 0 194 48" fill="none" xmlns="http://www.w3.org/2000/svg">
<path d="M18.2446 12.8598C18.1329 12.7055 18.0059 12.624 17.8643 12.624C17.7478 12.624 17.6418 12.6783 17.573 12.725C16.5001 13.6089 15.0323 17.3505 13.8291 22.2823L14.8939 22.295C16.9977 22.3196 19.1694 22.3459 21.3169 22.3807C20.7513 20.1218 20.2156 18.1861 19.7253 16.6227C19.0084 14.3384 18.5245 13.3154 18.2446 12.8598Z" fill="#C4CBF5" fill-opacity="0.7"/>
<path d="M20.6319 3.35205C9.50466 3.35205 0.484375 12.8085 0.484375 24.4737C0.484375 36.139 9.50466 45.5954 20.6319 45.5954C31.7592 45.5954 40.7795 36.139 40.7795 24.4737C40.7795 12.8085 31.7592 3.35205 20.6319 3.35205ZM35.1196 24.8571C35.118 24.8588 35.1163 24.8597 35.1147 24.8614C35.0929 24.88 35.071 24.897 35.0476 24.914C35.0403 24.9191 35.033 24.925 35.0249 24.9301C35.0095 24.9403 34.9934 24.9505 34.978 24.9598C34.9634 24.9691 34.9489 24.9776 34.9343 24.9861C34.9335 24.9869 34.9327 24.9869 34.9319 24.9878C34.7838 25.0692 34.6147 25.1159 34.4359 25.1159C34.4213 25.1159 24.8921 25.1159 24.8921 25.1159C24.9681 25.4475 25.0515 25.8242 25.1421 26.2339C25.6648 28.6014 27.0549 34.8912 28.5308 34.8912L28.5599 34.8921L28.5761 34.8895H28.6044C29.7574 34.8895 30.3457 33.1421 31.6354 29.3131L31.6508 29.2664C31.8579 28.6514 32.0918 27.9575 32.345 27.2238L32.4098 27.0363H32.4106C32.4761 26.8531 32.6444 26.7225 32.8427 26.7225C33.0975 26.7225 33.3047 26.9396 33.3047 27.2068C33.3047 27.2552 33.2974 27.3018 33.2853 27.3459L33.2319 27.5343C33.0975 27.9898 32.9543 28.6107 32.7893 29.3292C32.0206 32.6688 30.8595 37.7142 27.8802 37.7142H27.8584C25.9334 37.6981 24.7812 34.4722 24.2893 33.0946C23.3693 30.5184 22.6734 27.7735 22.0018 25.115H13.2162L11.3924 31.2344L11.3657 31.2123C11.199 31.4871 10.9061 31.6636 10.5832 31.6636C10.0743 31.6636 9.65759 31.2293 9.65516 30.6957L9.65678 30.6626L9.76682 29.9705C10.0185 28.3978 10.3203 26.7657 10.665 25.1159H6.95587L6.94212 25.1014C6.26891 24.9997 5.75187 24.377 5.75187 23.6509C5.75187 22.9392 6.2325 22.3327 6.89438 22.2097C6.95506 22.2012 7.07805 22.1902 7.32807 22.1902C7.38148 22.1902 7.44135 22.1902 7.50851 22.1919C8.68419 22.2131 9.93188 22.2326 11.3001 22.2513C13.2364 14.0028 15.4793 9.81579 17.9674 9.80392C20.6368 9.80392 22.6176 16.1761 24.2027 22.4099L24.2091 22.4345C27.4659 22.5032 30.9371 22.6025 34.3121 22.8561L34.4537 22.8697C34.5079 22.8705 34.5613 22.8765 34.6131 22.8849L34.6325 22.8866C34.6381 22.8875 34.6438 22.8892 34.6495 22.8909C34.6527 22.8917 34.6551 22.8926 34.6584 22.8926C35.1495 22.9961 35.5136 23.4473 35.5136 23.9902C35.5136 24.338 35.3599 24.651 35.1196 24.8571Z" fill="#C4CBF5" fill-opacity="0.7"/>
<path d="M51.9603 29.7583L50.3631 33.8961H45.7227L54.552 12.29H58.6503L67.4489 33.8969H62.8384L61.2411 29.7591H51.9603V29.7583ZM56.5708 17.7545L53.5575 25.6205H59.6439L56.5708 17.7545Z" fill="#C4CBF5" fill-opacity="0.7"/>
<path d="M93.6029 25.5891V33.8969H89.4148V25.9683C89.4148 23.5677 88.2998 22.2724 86.3417 22.2724C85.4678 22.2724 84.5033 22.6829 83.6294 23.9469C83.6901 24.4838 83.75 25.0207 83.75 25.5891V33.8969H79.5619V25.9683C79.5619 23.5677 78.4469 22.2724 76.458 22.2724C75.6448 22.2724 74.7402 22.778 73.8971 23.9782V33.8969H69.709V18.7657H73.8971V19.6818C74.8009 18.7971 75.7654 18.2915 77.4524 18.2915C79.2908 18.2915 80.9172 19.0498 82.0629 20.4393C83.5995 18.9548 85.0462 18.2915 87.3061 18.2915C90.8308 18.2915 93.6029 21.1663 93.6029 25.5891Z" fill="#C4CBF5" fill-opacity="0.7"/>
<path d="M112.013 26.3465C112.013 30.7371 108.819 34.2116 104.841 34.2116C103.214 34.2116 101.858 33.7696 100.744 33.0113V41.1928H96.5557V18.7648H100.744V19.6495C101.859 18.8912 103.215 18.4492 104.841 18.4492C108.818 18.4501 112.013 21.8932 112.013 26.3465ZM107.884 26.3465C107.884 24.1037 106.318 22.1451 104.148 22.1451C102.912 22.1451 101.677 22.587 100.743 23.9137V28.7471C101.677 30.0424 102.912 30.4843 104.148 30.4843C106.317 30.4852 107.884 28.5579 107.884 26.3465Z" fill="#C4CBF5" fill-opacity="0.7"/>
<path d="M118.551 33.8959H114.363V11.4688H118.551V33.8959Z" fill="#C4CBF5" fill-opacity="0.7"/>
<path d="M122.318 13.4275C122.318 11.943 123.433 10.8369 124.849 10.8369C126.235 10.8369 127.35 11.9422 127.35 13.4275C127.35 14.8806 126.235 15.9545 124.849 15.9545C123.433 15.9545 122.318 14.8806 122.318 13.4275ZM126.959 18.7656V33.8968H122.771V18.7656H126.959Z" fill="#C4CBF5" fill-opacity="0.7"/>
<path d="M142.173 33.6753C140.426 34.2437 139.643 34.37 138.286 34.37C134.791 34.37 132.501 31.7795 132.501 27.8631V22.4613H129.458V18.7655H132.501V13.3638H136.659V18.7655H141.872V22.4613H136.659V27.8317C136.659 29.5375 137.654 30.3272 139.19 30.3272C139.973 30.3272 140.817 30.1381 141.631 29.9167L142.173 33.6753Z" fill="#C4CBF5" fill-opacity="0.7"/>
<path d="M158.987 33.896H154.798V32.8221C153.624 33.801 152.297 34.3702 150.67 34.3702C146.874 34.3702 144.343 31.4955 144.343 27.1049V18.7656H148.531V26.6943C148.531 29.0949 149.676 30.3902 151.635 30.3902C152.689 30.3902 153.834 29.7268 154.798 28.4952V18.7656H158.987V33.896Z" fill="#C4CBF5" fill-opacity="0.7"/>
<path d="M176.765 33.8959H172.577V33.0112C171.462 33.7695 170.106 34.2115 168.479 34.2115C164.501 34.2115 161.277 30.7684 161.277 26.3142C161.277 21.9236 164.502 18.4482 168.479 18.4482C170.106 18.4482 171.462 18.8902 172.577 19.6485V11.4688H176.765V33.8959ZM172.576 28.7478V23.9144C171.642 22.6191 170.407 22.1772 169.171 22.1772C166.972 22.1772 165.435 24.1044 165.435 26.315C165.435 28.5578 166.971 30.5164 169.171 30.5164C170.407 30.5164 171.642 30.0745 172.576 28.7478Z" fill="#C4CBF5" fill-opacity="0.7"/>
<path d="M193.759 27.4527H183.122C183.454 29.2213 184.569 30.6116 186.859 30.6116C188.034 30.6116 188.848 30.2325 189.299 29.4741H193.669C192.885 32.3803 190.173 34.3703 186.768 34.3703C182.128 34.3703 178.994 30.8644 178.994 26.3466C178.994 21.6718 182.098 18.2915 186.648 18.2915C190.776 18.2915 193.849 21.3554 193.849 26.031C193.849 26.663 193.819 27.0099 193.759 27.4527ZM183.152 24.8621H189.691C189.45 22.9671 188.365 21.9246 186.678 21.9246C184.659 21.9246 183.544 23.1563 183.152 24.8621Z" fill="#C4CBF5" fill-opacity="0.7"/>
</svg>
