<svg width="24" height="24" viewBox="0 0 24 24" fill="none" xmlns="http://www.w3.org/2000/svg">
    <path d="M17.6922 11.1235C17.5888 11.074 17.4838 11.0263 17.3774 10.9806C17.1922 7.56728 15.3271 5.61312 12.1953 5.59312C12.1811 5.59304 12.167 5.59304 12.1528 5.59304C10.2796 5.59304 8.7217 6.39261 7.76281 7.84759L9.48519 9.0291C10.2015 7.94229 11.3257 7.7106 12.1536 7.7106C12.1632 7.7106 12.1728 7.7106 12.1823 7.71069C13.2134 7.71726 13.9916 8.01708 14.4952 8.60175C14.8617 9.02741 15.1068 9.61563 15.2282 10.358C14.3139 10.2026 13.3252 10.1548 12.2682 10.2154C9.29065 10.3869 7.37645 12.1235 7.50501 14.5365C7.57025 15.7605 8.18002 16.8135 9.22194 17.5014C10.1029 18.0829 11.2374 18.3673 12.4166 18.3029C13.9738 18.2175 15.1954 17.6234 16.0477 16.537C16.6949 15.712 17.1043 14.6429 17.2851 13.2957C18.0272 13.7436 18.5772 14.333 18.8809 15.0415C19.3974 16.2459 19.4276 18.225 17.8127 19.8385C16.3978 21.252 14.6971 21.8635 12.1267 21.8824C9.27559 21.8612 7.11929 20.9469 5.71732 19.1646C4.4045 17.4958 3.72602 15.0852 3.70071 12C3.72602 8.91473 4.4045 6.5042 5.71732 4.83534C7.11929 3.05311 9.27555 2.13875 12.1267 2.11756C14.9986 2.13891 17.1924 3.05767 18.6481 4.8485C19.3618 5.7267 19.8999 6.8311 20.2547 8.11879L22.2731 7.58028C21.8431 5.99528 21.1664 4.62946 20.2457 3.49675C18.3796 1.20084 15.6503 0.0243935 12.1337 0H12.1197C8.61026 0.0243088 5.91157 1.20522 4.0986 3.50991C2.4853 5.5608 1.65311 8.41446 1.62515 11.9916L1.62506 12L1.62515 12.0084C1.65311 15.5855 2.4853 18.4393 4.0986 20.4901C5.91157 22.7948 8.61026 23.9757 12.1197 24H12.1337C15.2538 23.9784 17.4531 23.1615 19.2648 21.3514C21.6352 18.9832 21.5638 16.0149 20.7826 14.1926C20.2221 12.8859 19.1534 11.8245 17.6922 11.1235ZM12.3051 16.1884C11.0001 16.2619 9.64436 15.6761 9.57751 14.4215C9.52796 13.4913 10.2395 12.4532 12.3852 12.3296C12.6309 12.3154 12.8721 12.3085 13.1089 12.3085C13.8883 12.3085 14.6174 12.3842 15.2803 12.5291C15.0331 15.6169 13.5828 16.1182 12.3051 16.1884Z"
          fill="#EAEDFF"/>
</svg>
